<svg width="307" height="363" viewBox="0 0 307 363" fill="none" xmlns="http://www.w3.org/2000/svg">
<path d="M26.207 357.843C26.207 360.604 28.4456 362.843 31.207 362.843C33.9685 362.843 36.207 360.604 36.207 357.843H26.207ZM26.207 61.936V357.843H36.207V61.936H26.207Z" fill="#7D7254"/>
<path d="M270.377 357.842C270.377 360.604 272.616 362.842 275.377 362.842C278.138 362.842 280.377 360.604 280.377 357.842H270.377ZM270.377 61.9355V357.842H280.377V61.9355H270.377Z" fill="#7D7254"/>
<path d="M275.378 362.568C278.139 362.568 280.378 360.33 280.378 357.568C280.378 354.807 278.139 352.568 275.378 352.568L275.378 362.568ZM31.207 362.568L275.378 362.568L275.378 352.568L31.207 352.568L31.207 362.568Z" fill="#7D7254"/>
<path d="M216.25 138.035L216.25 281.472" stroke="#7D7254" stroke-width="10" stroke-linecap="round"/>
<path d="M91.9746 138.035L91.9746 281.472" stroke="#7D7254" stroke-width="10" stroke-linecap="round"/>
<path d="M153.291 105.187L153.291 314.319" stroke="#7D7254" stroke-width="10" stroke-linecap="round"/>
<rect x="5" y="36.8262" width="296.582" height="20.1108" rx="6.06395" stroke="#7D7254" stroke-width="10"/>
<path d="M113.873 31.8259V9.82791C113.873 7.16153 116.035 5 118.701 5H187.881C190.547 5 192.708 7.16153 192.708 9.82791V31.8259" stroke="#7D7254" stroke-width="10"/>
</svg>
